<?xml version="1.0" encoding="utf-8"?>
<!-- Generator: Adobe Illustrator 28.0.0, SVG Export Plug-In . SVG Version: 6.00 Build 0)  -->
<svg version="1.1" id="Layer_1" xmlns="http://www.w3.org/2000/svg" xmlns:xlink="http://www.w3.org/1999/xlink" x="0px" y="0px"
	 viewBox="0 0 400 400" style="enable-background:new 0 0 400 400;" xml:space="preserve">
<style type="text/css">
	.st0{stroke:#000000;stroke-miterlimit:10;}
	.st1{fill:#FFFFFF;stroke:#000000;stroke-miterlimit:10;}
</style>
<g>
	<circle class="st0" cx="200.69" cy="198.74" r="189.76"/>
	<circle class="st1" cx="201.46" cy="198.74" r="171.74"/>
	<g>
		<g>
			<path d="M199.73,382.02c-1.42,0-2.86-0.12-4.26,0.02c-6.56,0.64-13.1-0.28-19.49-1.19c-5.81-0.83-11.92-0.98-17.42-3.57
				c-9.52-0.91-18-5.53-27.2-7.59c-7.82-4.33-16.56-6.89-23.81-12.33c-6.01-2.01-10.64-6.36-15.92-9.59
				c-3.99-2.45-7.3-5.99-11.07-8.83c-6.93-5.21-12.46-11.86-18.66-17.83c-2.09-2.01-3.75-4.48-5.75-6.59
				c-1.99-2.1-3.21-4.81-5.1-6.86c-3.32-3.59-5.76-7.76-8.34-11.79c-3.88-6.05-7.22-12.45-10.49-18.86
				c-3.93-7.69-6.68-15.88-9.55-24.01c-1.37-3.88-1.69-8.07-3.69-11.74c0.38-4.16-2.19-7.82-2.03-11.99
				c0.05-1.28-0.59-2.58-0.89-3.87c-0.3-1.31,0.64-2.84-0.75-3.97c-0.18-0.14-0.17-0.56-0.19-0.85c-0.32-4.45-0.78-8.9-0.92-13.36
				c-0.16-5.21,0.22-10.44-0.1-15.64c-0.41-6.57,0.33-13.11,1.24-19.49c0.83-5.81,0.98-11.92,3.57-17.42
				c0.91-9.52,5.54-18,7.59-27.2c4.33-7.82,6.89-16.56,12.33-23.81c2.01-6.01,6.36-10.64,9.59-15.92c2.45-3.99,5.99-7.3,8.83-11.07
				c5.21-6.93,11.86-12.46,17.83-18.66c2.01-2.09,4.48-3.75,6.59-5.75c2.1-1.99,4.81-3.21,6.86-5.1c3.59-3.32,7.76-5.76,11.79-8.34
				c6.05-3.88,12.45-7.22,18.86-10.49c7.69-3.93,15.88-6.68,24.01-9.55c3.88-1.37,8.07-1.69,11.74-3.69
				c4.16,0.38,7.82-2.19,11.99-2.03c1.28,0.05,2.58-0.59,3.87-0.89c1.31-0.3,2.84,0.64,3.97-0.75c0.14-0.18,0.56-0.17,0.85-0.19
				c4.45-0.32,8.9-0.78,13.36-0.92c5.21-0.16,10.44,0.22,15.64-0.1c6.57-0.41,13.11,0.33,19.49,1.24
				c5.81,0.83,11.92,0.98,17.42,3.57c9.52,0.91,18,5.54,27.2,7.59c7.82,4.33,16.56,6.89,23.81,12.33
				c6.01,2.01,10.64,6.36,15.92,9.59c3.99,2.45,7.29,5.99,11.07,8.83c6.93,5.21,12.46,11.86,18.66,17.83
				c2.09,2.01,3.75,4.48,5.75,6.59c1.99,2.1,3.21,4.81,5.1,6.86c3.32,3.59,5.76,7.76,8.34,11.79c3.88,6.05,7.22,12.45,10.49,18.86
				c3.93,7.69,6.68,15.88,9.55,24.01c1.37,3.88,1.69,8.07,3.69,11.74c-0.38,4.16,2.19,7.82,2.03,11.99
				c-0.05,1.28,0.59,2.58,0.89,3.87c0.3,1.31-0.64,2.84,0.75,3.97c0.18,0.14,0.17,0.56,0.19,0.85c0.32,4.45,0.78,8.9,0.92,13.36
				c0.16,5.21-0.22,10.44,0.1,15.64c0.41,6.57-0.33,13.11-1.24,19.49c-0.83,5.81-0.98,11.92-3.57,17.42
				c-0.91,9.52-5.54,18-7.59,27.2c-4.33,7.82-6.89,16.56-12.33,23.81c-2.01,6.01-6.36,10.64-9.59,15.92
				c-2.45,3.99-5.99,7.29-8.83,11.07c-5.21,6.93-11.86,12.46-17.83,18.66c-2.01,2.09-4.48,3.75-6.59,5.75
				c-2.1,1.99-4.81,3.21-6.86,5.1c-3.59,3.32-7.76,5.76-11.79,8.34c-6.05,3.88-12.45,7.22-18.86,10.49
				c-7.69,3.93-15.88,6.68-24.01,9.55c-3.88,1.37-7.88,2.62-11.8,3.43c-3.92,0.81-7.77,2.46-11.93,2.29
				c-1.28-0.05-2.58,0.59-3.87,0.89c-1.31,0.3-2.82-0.62-3.98,0.74c-0.22,0.26-0.86,0.18-1.31,0.21
				C215.91,381.52,207.85,382.65,199.73,382.02z M153.14,310.9c3.15,0,5.79,0,8.43,0c1.42,0,2.88,0.2,4.25-0.07
				c0.93-0.18,2.72-0.2,1.18-2.33c-0.95-1.31-0.98-3.42-1.06-5.19c-0.08-1.84-0.8-3.58-0.88-5.29c-0.19-3.99-1.36-7.62-3.03-11.11
				c-0.57-1.19-1.32-1.84-0.03-3.12c0.59-0.59,0-1.91-0.86-2.86c-1.41-1.58-1.26-10.25-0.19-12.07c1.11-1.89,2.58-3.81,2.88-5.87
				c0.31-2.13,1-4.65-0.76-6.72c-0.23-0.28-0.19-0.99-0.01-1.38c1.6-3.55,1.24-7.04,0.03-10.62c-0.32-0.95-0.15-2.21,0.15-3.22
				c0.95-3.18,1.77-6.37,1.69-9.73c-0.03-1.11,0.02-2.21-0.01-3.32c-0.05-1.53,0.94-2.5,2.18-2.36c1.95,0.22,3.57-0.66,5.29-1.08
				c6.79-1.64,10.18-3.3,14.33-9.32c1.01-1.46,2.42-2.9,2.75-4.52c0.84-4.15,2.84-7.68,4.81-11.31c1.93-3.55,2.5-7.98,0.63-11.44
				c-1.24-2.28-0.06-3.64,0.76-4.87c1.69-2.54,3.85-4.79,5.95-7.03c3.51-3.74,7.55-7.01,10.36-11.37c1.59-2.47,3.99-4.48,4.19-7.76
				c0.07-1.12,3.31-4.96,4.69-6.11c0,1.68,0,3.24,0,4.8c0,1.42-0.4,3.01,0.11,4.22c0.57,1.36-0.09,2.37-0.05,3.52
				c0.05,1.3,0.81,2.58,0.85,3.88c0.18,5.96-0.57,11.98,1.86,17.73c0.41,0.96,0.22,2.83-0.46,3.49c-3.31,3.21-2.2,7.21-2.15,10.94
				c0.01,0.7,0.3,1.22-0.08,2.09c-1.22,2.81-2.06,5.78-3.22,8.62c-0.24,0.58-0.53,0.72-0.04,1.4c1.03,1.43,1.5,2.96,0.41,4.78
				c-0.65,1.09-0.77,2.53-1,3.84c-0.94,5.39-2.95,10.47-5.01,15.47c-1.34,3.23-2.36,6.57-1.46,9.7c0.86,2.96,0.65,5.79,0.73,8.67
				c0.14,5.05-0.03,10.11,0.06,15.17c0.09,4.96-1.55,9.77-1.05,14.79c0.12,1.26-0.59,2.58-2.16,3.39c-0.77,0.4-1.53,1.48-2.25,2.23
				c-0.64,0.67-0.34,2.39-0.2,3.61c0.08,0.65,0.7,1.24,0.92,1.6c-1.09,1.11-2.11,1.92-2.85,2.93c-2.55,3.5-5.43,6.34-10.25,5.6
				c-2.52-0.39-4.6,0.88-6.95,1.34c0.58,2.72,2.83,3.9,4.6,4.21c4.29,0.74,8.51,2.11,12.94,2.05c1.11-0.01,2.42-0.39,3.28,0.07
				c2.82,1.51,5.68,0.54,8.9,1.02c-0.57-3.68-0.3-6.8,1.63-9.59c0.15-0.22-0.5-1-0.78-1.54c0.59-0.33,1.28-0.72,2.14-1.2
				c-0.99-1.22-1.73-2.14-2.59-3.19c2.6-2.19,4.28-4.53,4.3-7.92c0.01-1.51,1.28-2.97,1.53-4.53c0.64-3.96,3.86-7.22,3.07-11.54
				c1.57-2.7,1.4-5.82,1.76-8.72c0.57-4.57-0.01-9.2,0.91-13.85c0.52-2.65,2.49-4.77,2.22-7.73c-0.11-1.12,1.6-2.41,2.49-3.63
				c1.33-1.82,2.7-3.61,3.97-5.47c0.86-1.27,1.56-2.65,3.49-2.89c1.07,2.61,1.94,5.27,3.21,7.72c1.85,3.57,3.22,7.23,3.87,11.23
				c0.18,1.09,0.44,2.76,2.41,3.26c1.58,0.4,2.85,1.81,3.18,3.72c0.2,1.15,0.5,2.32,0.95,3.4c1.74,4.19,2.51,8.74,4.73,12.73
				c2.28,4.1,4.1,8.4,5.98,12.69c0.7,1.61,1.09,3.47,0.51,4.39c-1.84,2.9-0.32,4.82,1.15,6.94c1.03,1.48,1.4,4.14,0.39,5.1
				c-2.4,2.27-4.22,5.37-8.03,5.79c-0.96,0.11-1.96,0.7-2.73,1.33c-0.56,0.46-0.78,1.34-1.25,2.2c8.73,0.8,16.93-0.15,25.14-0.8
				c1.24-0.1,2.51-0.85,3.59-1.56c0.5-0.33,1.01-1.54,0.78-1.93c-1.39-2.39-0.29-5.45-2.14-7.65c-1.05-1.25-0.69-2.53-0.27-3.86
				c0.91-2.94,0.82-2.85-1.76-4.89c-1.43-1.13-2.87-2.32-2.44-4.68c0.81-4.48-1.66-8.55-1.94-12.91
				c-4.02-10.04-6.47-20.67-11.46-30.33c-0.62-1.21-1.14-1.96-0.33-3.3c0.9-1.49,0.97-3.24-0.08-4.76c-1.3-1.88-1.39-3.94-1.34-6.1
				c0.07-2.53,0.02-5.06,0.02-7.58c0-2.69,0.26-5.4-0.08-8.05c-0.29-2.31,1.72-4.5,0.15-6.85c-0.23-0.35,0.28-1.48,0.74-1.98
				c3.43-3.74,4.62-8.33,4.81-13.16c0.09-2.38,0.64-4.82-0.72-7.27c-0.53-0.96,1.69-2.65-0.02-4.44c-1.02-1.07-1.28-2.91-1.73-4.45
				c-0.25-0.86-0.61-2.07-0.23-2.68c1.4-2.18,0.75-4.51,0.85-6.77c0.1-2.21-0.01-4.42,0.06-6.63c0.01-0.27,0.57-0.72,0.88-0.72
				c0.32-0.01,0.95,0.47,0.93,0.67c-0.42,3.27,0.42,6.42,1.31,9.45c1.31,4.48,2.02,9.03,2.53,13.64c0.2,1.79,0.03,3.5,0.78,5.37
				c0.75,1.88,0.67,4.55-0.07,6.47c-1.76,4.56-0.14,8.56,1.24,12.65c0.29,0.86,1.21,1.5,1.7,2.08c2.17-1.62,4.03-2.93,5.78-4.38
				c0.51-0.43,0.88-1.25,0.97-1.93c0.37-2.64-0.54-5.01-1.64-7.36c-1.41-3.01-2.26-6.11-2.17-9.55c0.19-7.26,0.07-14.54,0.05-21.81
				c0-1.07,0.25-2.67-0.32-3.11c-1.22-0.94,0.53-1.34,0.04-2.16c-0.5-0.84-0.53-2-0.63-3.04c-0.1-0.94,0.1-1.91-0.05-2.84
				c-0.17-1-0.73-1.94-0.89-2.94c-0.4-2.54-0.23-5.26-1.09-7.62c-0.89-2.46-1.4-4.55,0.05-6.88c0.28-0.46,0.3-1.39,0.02-1.83
				c-1.45-2.28-1.79-4.99-2.62-7.44c-0.9-2.64-2.04-5.21-2.84-7.82c-0.96-3.11-2.47-5.68-4.91-7.41c-4.3-3.06-9.02-5.46-14.02-7.3
				c-1.91-0.7-4.43-1.42-5.29-2.93c-1.68-2.92-3.57-5.97-1.73-10c1.14-2.49,1.82-5.43,0.32-8.69c-2.19-4.73-1.97-5.48-4.98-7.31
				c-2.72-1.65-5.69-3.26-8.94-2.22c-3.75,1.2-7.04,3.55-10.72,5.02c-0.91,0.36-1.53,1.45-2.21,2.13c0.78,1.44,1.98,2.63,1.93,3.76
				c-0.15,3.19,1.04,6.48-0.76,9.62c-0.41,0.72-0.12,2.35,0.46,3.01c1.41,1.59,1.43,4.22,3.88,5.02c0.51,0.17,0.93,0.82,1.25,1.35
				c0.75,1.26,1.12,3.03,2.2,3.73c1.13,0.73,2.91,0.46,4.53,0.64c-0.14,0.6-0.16,1.35-0.35,1.39c-2.02,0.47-3.63,1.8-5.71,2.33
				c-2.58,0.67-4.89,2.02-6.56,4.91c-1.79,3.1-3.16,6.28-4.63,9.49c-0.94,2.04-1.42,4.16-2.18,6.21c-0.82,2.19-1.53,4.42-2.49,6.55
				c-0.72,1.61-1.2,2.85,1.26,3.04c0.23,0.02,0.44,0.35,0.55,0.44c-0.29,1.37-0.33,2.78-0.88,3.95c-1.26,2.64-1.46,5.61-3.32,8.14
				c-2.23,3.04-3.71,6.64-5.45,10.03c-0.87,1.69-1.51,3.49-2.37,5.18c-1.6,3.14-3.31,6.21-4.92,9.34
				c-2.41,4.68-4.79,9.36-6.76,14.27c-0.87,2.17-1.21,4.24-0.54,6.18c1.47,4.26,0.77,7.74-2.61,10.69
				c-0.48,0.41-1.09,0.81-1.31,1.35c-1.25,2.99-3.2,4.81-6.66,4.38c-3.49,2.22-6.62,0.3-9.7-1c-2.05-0.87-3.87-1.56-5.95-0.12
				c-1.06,0.74-1.88-0.36-2.19-1.06c-0.3-0.7-0.06-2.39,0.16-2.43c3.12-0.56,3.79-3.59,5.04-5.56c1.27-2.01,1.29-4.89,1.19-7.55
				c-0.23-5.47-4.41-9.59-9.91-9.84c-3.61-0.17-6.88,0.47-9.98,2.3c-0.86,0.51-1.92,0.69-3.21,1.13c1.6,3.43-1.73,6.94,0.24,10.5
				c0.14,0.26-0.12,0.92-0.39,1.21c-2.24,2.42-0.51,5-0.15,7.42c0.13,0.88,0.58,2.75,2.72,2.21c1.64-0.41,2.5,0.71,2.62,2.34
				c-3.14,1.39-3.14,1.39-7.95,1.39c-3.42,2.71-5.7,6.42-9.13,8.99c-1.2,0.9-2.55,1.66-3.6,2.71c-2.92,2.9-6.46,4.92-9.96,6.92
				c-1.53,0.87-2.63,1.88-3.9,3.21c1.21,0.89,1.23,2.33,3.46,1.38c5.1-2.19,10.4-3.95,15.83-5.33c1.97-0.5,3.72-0.77,5.75-0.76
				c0,0.78,0.14,1.3-0.02,1.69c-1.67,4.1-2.12,8.62-3.91,12.6c-1.31,2.91-0.65,4.9,1.08,6.93c1.06,1.24,0.88,2.11,0.37,3.63
				c-1.8,5.36-4.51,10.22-7.56,14.87c-1.24,1.88-2.15,3.87-3.22,5.8c-0.71,1.29-1.78,2.56-0.24,4.07c0.22,0.21-0.06,1.07-0.27,1.57
				c-0.4,0.94-1.31,1.82-1.32,2.74c-0.06,3.69-2.09,6.76-2.95,10.19c-0.47,1.86-1.62,3.08-3.85,3.24c-2.83,0.2-5.63,0.81-9.04,1.34
				c5.59,3.57,10.78,6.72,16.72,9.03c0.05-2.61-0.32-4.99,1.57-6.79c0.19-0.18,0.38-0.57,0.32-0.79c-0.58-2.06,0.94-3.07,2.01-4.41
				c2.39-3.01,4.47-6.38,5.44-10.03c0.57-2.15,1.09-3.68,3.15-4.54c0.54-0.23,1.08-0.63,1.43-1.1c1.61-2.16,3.1-4.41,4.74-6.56
				c0.54-0.71,1.3-1.42,2.11-1.73c0.53-0.2,1.79,0.15,1.95,0.55c1.18,3,3.2,5.78,2.9,9.22c-0.21,2.45,1.7,4.05,2.28,6.17
				c2.56,0.77,2.45,3.33,3.39,5.15c1.41,2.73,1.65,6.04,4.24,8.21c0.96,0.8,0.95,2.02,0.02,2.85c-1.48,1.31-2.44,3.25-4.56,3.85
				C153.81,309.15,153.65,309.93,153.14,310.9z"/>
		</g>
	</g>
</g>
</svg>
