<?xml version="1.0" encoding="UTF-8"?>
<svg id="Layer_1" data-name="Layer 1" xmlns="http://www.w3.org/2000/svg" viewBox="0 0 381.55 383.47">
  <defs>
    <style>
      .cls-1, .cls-2 {
        stroke: #000;
      }

      .cls-1, .cls-2, .cls-3 {
        stroke-miterlimit: 10;
      }

      .cls-4 {
        stroke-width: 0px;
      }

      .cls-2, .cls-3 {
        fill: #fff;
      }

      .cls-3 {
        stroke: #fff;
      }
    </style>
  </defs>
  <circle class="cls-1" cx="191.29" cy="193.21" r="189.76"/>
  <circle class="cls-2" cx="192.06" cy="193.21" r="171.74"/>
  <path class="cls-4" d="m191.55,377.44c-3,0-6.01.11-9.01-.02-5.09-.23-10.3,0-15.22-1.08-5.65-1.25-11.62-1.02-16.97-3.59-4.88.05-9.22-2.12-13.77-3.39-4.51-1.26-9.07-2.51-13.38-4.32-6.33-2.65-12.59-5.53-18.64-8.78-8.37-4.5-16.29-9.71-24.07-15.24-10.87-7.72-20.1-17.12-29.15-26.69-7.23-7.65-12.99-16.58-18.8-25.36-2.5-3.77-4.45-7.93-6.39-12.04-1.87-3.96-4.64-7.52-5.4-11.98-4.04-6.59-5.45-14.19-7.9-21.37-1.07-3.15-1.89-6.53-2.64-9.86-.83-3.73-1.15-7.61-2.48-11.26-.41-1.11-.01-2.5-.19-3.72-.17-1.15-.77-2.25-.88-3.41-.4-4.13-.79-8.26-.94-12.41-.16-4.26-.04-8.53-.04-12.8,0-2.53-.1-5.06.02-7.58.25-5.09,0-10.3,1.09-15.22,1.25-5.65,1.01-11.62,3.59-16.97-.05-4.88,2.12-9.22,3.39-13.77,1.26-4.51,2.51-9.07,4.32-13.38,2.65-6.33,5.53-12.59,8.78-18.64,4.5-8.37,9.71-16.29,15.24-24.07,7.72-10.87,17.12-20.1,26.69-29.15,7.65-7.23,16.58-12.99,25.36-18.8,3.77-2.5,7.93-4.45,12.04-6.39,3.96-1.87,7.52-4.64,11.98-5.4,6.59-4.04,14.19-5.45,21.37-7.9,3.15-1.07,6.53-1.89,9.86-2.64,3.73-.83,7.61-1.15,11.26-2.48,1.11-.41,2.5-.01,3.73-.19,1.15-.17,2.25-.77,3.41-.88,4.13-.4,8.26-.79,12.41-.94,4.26-.16,8.53-.04,12.8-.04,2.69,0,5.38-.11,8.06.02,4.93.24,9.99,0,14.74,1.08,5.64,1.27,11.62,1.02,16.97,3.59,4.88-.05,9.22,2.12,13.77,3.39,4.51,1.26,9.07,2.51,13.38,4.32,6.33,2.65,12.59,5.53,18.64,8.78,8.37,4.5,16.29,9.71,24.07,15.24,10.87,7.72,20.1,17.12,29.15,26.69,7.23,7.65,12.99,16.58,18.8,25.36,2.5,3.77,4.45,7.93,6.39,12.04,1.87,3.96,4.64,7.52,5.4,11.98,4.04,6.59,5.45,14.19,7.9,21.37,1.07,3.15,1.89,6.53,2.64,9.86.84,3.73,1.15,7.61,2.48,11.26.41,1.11.01,2.5.19,3.73.17,1.15.77,2.25.88,3.41.4,4.13.79,8.26.94,12.41.16,4.26.04,8.53.04,12.8,0,2.69.11,5.38-.02,8.06-.24,4.93,0,9.99-1.08,14.74-1.27,5.64-1.02,11.62-3.59,16.97.05,4.88-2.12,9.22-3.39,13.77-1.26,4.51-2.51,9.07-4.32,13.38-2.65,6.33-5.53,12.59-8.78,18.64-4.5,8.37-9.71,16.29-15.24,24.07-7.72,10.87-17.12,20.1-26.69,29.15-7.65,7.23-16.45,13.2-25.39,18.76-6.82,4.24-14.21,7.57-21.44,11.15-7.75,3.83-16.18,5.93-24.26,8.94-1.99.74-4.26,1.1-6.39,1.75-2.13.65-4.39.84-6.59,1.28-3.98.79-8,1.39-11.98,2.1-2.6.46-5.24.17-7.68.84-3.2.89-6.38.81-9.59.84-3.16.03-6.32,0-9.48,0Zm-76.8-72.79c0-2.79-.26-5.13,1.5-6.99.27-.28.44-.86.36-1.24-.34-1.64.71-2.54,1.65-3.61,2.66-3.04,4.72-6.58,5.8-10.37.6-2.12,1.07-3.68,3.1-4.59.54-.24,1.1-.6,1.44-1.06,1.61-2.16,3.13-4.39,4.73-6.56.46-.63,1.01-1.4,1.68-1.62.84-.28,1.87-.9,2.57.76,1.26,3.01,3.02,5.83,2.78,9.28-.15,2.25,1.11,4.39,2.37,5.55,1.84,1.71,2.54,3.63,3.34,5.74.83,2.18,1.55,4.51,2.89,6.37,2.35,3.27,2.57,3.18-.31,5.94-.96.92-2.21,1.54-3.25,2.4-.27.22-.24.81-.47,1.67h2.9c3.16,0,6.33.11,9.48-.07.85-.05,2.97-.3,1.18-2.19-.45-4.34-1.55-8.57-2.11-12.9-.33-2.55-.78-5.23-2.2-7.6-.83-1.39-2.17-2.81-.6-4.73.53-.65-.18-1.63-.85-2.43-1.38-1.65-1.33-10.26-.27-12.08,1.11-1.89,2.56-3.81,2.89-5.87.34-2.13,1.02-4.61-.72-6.72-.31-.37-.15-1.25,0-1.85,1.03-4.4.97-4.38.02-9.67-.23-1.29.2-2.71.42-4.06.44-2.65,1.04-5.28,1.38-7.95.2-1.55.08-3.16.02-4.74-.05-1.53.81-2.25,2.14-2.49,2.07-.37,4.22-.44,6.23-1,5.51-1.54,10.29-4.25,13.45-9.25.95-1.5,2.46-2.91,2.74-4.53.74-4.34,3.1-7.91,4.86-11.76,1.84-4.03,2.56-7.13.8-10.61-1.37-2.7-.36-4.3,1.1-5.98,3.15-3.63,6.47-7.12,9.69-10.7,2.37-2.64,5.04-5.1,6.93-8.06,1.29-2.03,2.97-3.89,3.48-6.64.42-2.3,2.34-4.46,4.54-6.95,0,2.85.16,4.89-.04,6.9-.23,2.28,1.09,4.54.04,6.8,1.49,2.24.86,4.77.93,7.19.08,2.53-.47,5.19.17,7.54.52,1.95.61,4.02,1.59,5.97.7,1.4.54,3.51-1.19,5.1-1.27,1.17-1.89,3.08-1.49,5.02.39,1.91-.94,4.1.93,5.78-.94,1.66-2.04,3.25-2.77,5-.57,1.34-.32,3.12-1.1,4.26-.79,1.15-.23,1.79.12,2.59.52,1.19,1.78,2.33-.02,3.49.37,1.6-.66,2.91-.89,4.36-.87,5.43-3.19,10.39-5,15.49-.87,2.44-1.75,4.72-1.72,7.35.04,3.23,1.26,6.26,1.06,9.57-.31,5.04-.25,10.12-.03,15.16.24,5.45-1.69,10.74-1.03,16.21.12,1.01-.67,1.93-2.21,3.32-2.08,1.88-2.93,3.75-2.46,5.91.15.67.72,1.24,1.1,1.85-1.23,1.05-3.2,1.08-3.03,3.14-2.78,2.93-5.46,6.06-10.17,5.21-2.51-.45-4.65.8-7.09,1.39.79,2.71,2.98,3.79,5.08,4.2,4.73.94,9.45,2.25,14.37,2,.63-.03,1.43-.25,1.87.04,2.6,1.72,5.37.51,8.3,1.03-.1-3.54-.3-6.76,1.81-9.52.19-.25-.47-1.15-.74-1.75.74-.31,1.33-.56,2.24-.95-1.09-1.27-1.86-2.17-2.77-3.24,2.53-2.24,4.61-4.48,4.2-7.93,1.92-1-.04-3.44,1.68-4.52.63-3.95,3.75-7.24,3.04-11.54,1.83-1.49.22-3.73,1.04-5.25,1.05-1.94.82-3.86.85-5.82.06-3.84.07-7.64.8-11.49.4-2.14,2.11-3.81,1.96-5.81-.2-2.57,1.88-3.7,2.79-5.52.98-1.99,2.69-3.61,3.92-5.5.85-1.3,1.6-2.58,3.45-3,1.09,2.64,2.01,5.26,3.25,7.73,1.81,3.58,3.31,7.2,3.83,11.24.19,1.47.94,3.17,2.78,3.45,1.86.29,2.06,1.97,2.76,3.09.67,1.07.56,2.6,1.05,3.82,1.69,4.2,2.54,8.72,4.72,12.74,2.23,4.12,4.18,8.36,5.95,12.7.65,1.58,1.13,3.39.55,4.38-1.8,3.08-.3,5.08,1.42,7.3,1.14,1.48,1.2,3.52.11,4.71-2.23,2.41-4.15,5.43-7.96,5.87-.96.11-1.97.67-2.75,1.29-.58.46-.82,1.34-1.31,2.2,8.86.92,17.21-.23,25.57-.76,1.08-.07,2.21-.82,3.13-1.51.5-.38.95-1.36.83-1.95-.49-2.45-.89-5.01-1.94-7.24-.79-1.68-1.29-2.9-.26-4.64.49-.82.54-2.18.22-3.1-.23-.65-1.47-.88-2.16-1.43-1.47-1.18-2.84-2.41-2.45-4.64.78-4.51-1.81-8.55-1.93-12.94-4.11-10-6.48-20.67-11.45-30.33-.61-1.19-1.14-1.93-.43-3.3.85-1.64,1-3.38-.25-5.14-1.06-1.49-1.27-3.35-1.11-5.22.09-1.1.02-2.21.02-3.32,0-3-.11-6.01.03-9.01.14-2.88-.77-5.89.89-8.63.09-.15-.15-.56-.33-.78-1.05-1.36-.68-2.41.45-3.61,2.39-2.56,4.76-8.47,4.6-11.81-.13-2.72.65-5.47-.77-8.21-.56-1.07,1.8-2.66.05-4.48-1.02-1.06-1.27-2.91-1.73-4.45-.26-.86-.65-2.06-.27-2.66,1.55-2.49.69-5.14.85-7.71.13-2.15.03-4.32.03-7.48,1.09,1.21,1.89,1.71,1.83,2.09-.44,3.14.66,6.06,1.28,9,.48,2.3,1.66,4.49,1.59,6.89-.07,2.48,1.42,4.64,1.06,7.2-.22,1.57,0,3.17.69,4.88.76,1.88.8,4.64-.04,6.47-1.89,4.09-.16,7.78.56,11.53.2,1.05.62,3.18,3.32,3.15.88-.97,1.89-2.41,3.23-3.46,1.02-.8,2.72-.8,2.6-2.67-.09-1.38-.04-2.8-.36-4.12-.3-1.26-1.06-2.4-1.52-3.63-1.11-2.95-2.07-5.87-1.97-9.17.21-6.79.06-13.59.06-20.38,0-1.11-.35-2.38.09-3.28.58-1.2-1.5-1.46-.55-2.8.45-.63-.37-2.08-.46-3.18-.1-1.1.32-2.36-.08-3.29-1.69-3.89-.92-8.26-2.66-12.18-.59-1.32.04-3.33.49-4.91.32-1.12-.06-1.96-.13-2.93-.23-3.06-2.08-5.51-2.55-8.51-.48-3.08-2.28-5.97-3.63-8.88-1.89-4.08-5.62-6.16-9.38-8.04-3.65-1.82-7.5-3.25-11.19-5.01-3.93-1.87-5.84-7.06-4.4-11.31.52-1.53,1.07-3.1,1.24-4.69.37-3.43-1.08-6.46-2.86-9.21-1.26-1.94-3.48-2.94-5.55-3.96-2.27-1.13-4.41-1.07-6.95-.41-3.5.92-6.07,3.61-9.64,4.29-1.08.21-1.96,1.42-2.78,2.06.96,1.76,2.17,2.94,2.11,4.07-.15,3.19,1.06,6.48-.76,9.62-.42.72-.17,2.39.42,3.02,1.45,1.56,1.44,4.22,3.88,5.02.52.17.98.81,1.29,1.33.75,1.26,1.09,3.04,2.16,3.75,1.12.74,2.9.47,4.51.66-.09.57-.03,1.27-.25,1.37-1.72.8-3.47,1.55-5.26,2.18-3,1.06-5.46,2.34-7.3,5.41-1.61,2.69-3.14,5.42-4.07,8.29-1.53,4.74-3.87,9.17-5.08,14.04-.36,1.47-.31,2.02.84,2.61.38.19.82.26,1.17.37-.33,1.43-.41,2.83-.97,4-1.26,2.64-1.41,5.62-3.28,8.16-2.23,3.04-3.71,6.64-5.45,10.03-.87,1.69-1.51,3.49-2.38,5.18-1.61,3.13-3.37,6.18-4.96,9.33-2.37,4.7-4.83,9.34-6.74,14.28-.88,2.28-1.11,4.26-.4,6.55,1.1,3.55.9,6.92-2.08,9.65-.58.53-1.3,1.02-1.65,1.69-1.58,3.06-3.51,5.45-7.46,4.75-3.2,2.24-5.92.25-8.79-.91-2.05-.83-4.16-1.92-6.43-.28-.33.24-1.44-.18-1.87-.61-1.1-1.1-.78-1.68.67-2.96,3.86-3.41,5.62-7.67,5.38-12.89-.25-5.49-4.37-9.66-9.84-9.89-3.59-.15-6.9.36-10,2.25-.85.52-1.92.7-2.97,1.06,0,1.54.11,3.12-.04,4.67-.1,1-1.11,2.17-.81,2.89,1.03,2.44.88,4.52-.83,6.55-.22.26-.18.87-.05,1.25.66,2.05,1.39,4.08,2.07,6.03,2.13.02,4.24-.46,4.39,2.36-2.43,1.92-5.26,1.37-8.18,1.45-1.21,1.25-2.38,2.79-3.87,3.92-1.54,1.16-2.24,2.92-3.85,4.11-5.18,3.83-9.81,8.4-15.85,11.02-1.04.45-1.74,1.67-2.73,2.67,1.04.98,1.21,2.52,3.02,1.73,5.39-2.34,10.87-4.46,16.71-5.44,1.53-1.79,3.42-.57,5.19-1.03.05.86.21,1.36.09,1.77-1.23,4.07-2.27,8.22-3.85,12.15-1.23,3.04-1.12,5.51,1.29,7.75.97.9.8,1.82.39,2.92-2.02,5.38-4.57,10.52-7.81,15.23-1.28,1.86-2.15,3.87-3.25,5.79-.71,1.24-1.89,2.56-.28,4.06.24.22.3.94.12,1.24-2.45,4.11-2.77,8.95-4.58,13.28-.76,1.81-1.59,3.13-3.86,3.29-2.83.2-5.64.81-9,1.32,5.33,3.73,10.71,6.42,16.62,9.28Z"/>
  <path class="cls-3" d="m107.62,229.51s-3.68.29-5.98,2.28c-2.3,2-2.76,2.28-1.84,3.71s5.75.71,6.44-.14,1.38-3.43,2.76-3.57-1.38-2.28-1.38-2.28Z"/>
  <path class="cls-3" d="m222.06,235.81s-5.45,34.55-4.26,37.11-6.3,25.87-9.02,26.04-3.57-14.98-3.57-14.98c0,0,7.66-42.21,9.02-42.04s7.83-6.13,7.83-6.13Z"/>
  <path class="cls-3" d="m254.06,234.28s22.4,36.26,19.07,52.09-5.74-.51-5.74-.51l-13.33-51.57Z"/>
</svg>